<?xml version="1.0" encoding="UTF-8"?><svg id="uuid-f1834105-370c-4616-90cf-1da7aa5e27e7" xmlns="http://www.w3.org/2000/svg" viewBox="0 0 659.4 658.13"><g id="uuid-9cd02f6d-8694-4262-a3de-003f8ab60d10"><path d="M356.14,424.36l-87.82,227.77c-3.72,9.64-17.96,7.01-18.1-3.28l-1.61-169.59c-.51-54.02-33.95-102.28-84.39-121.77L5.94,296.53c-9.56-3.72-6.94-17.96,3.28-18.03l244.13-2.34c9.34-.14,18.18,4.46,23.51,12.12l13.43,19.42,51.4,74.03,11.32,16.35c5.33,7.66,6.5,17.52,3.14,26.28Z"/><path d="M303.26,233.77L391.08,6c3.72-9.64,17.96-7.01,18.1,3.28l1.61,169.59c.51,54.02,33.95,102.28,84.39,121.77l158.27,60.96c9.56,3.72,6.94,17.96-3.28,18.03l-244.13,2.34c-9.34.14-18.18-4.46-23.51-12.12l-13.43-19.42-51.4-74.03-11.32-16.35c-5.33-7.66-6.5-17.52-3.14-26.28Z"/></g></svg>