<?xml version="1.0" encoding="UTF-8"?><svg id="uuid-da08b48f-f61c-4727-aed6-eb4d824e7710" xmlns="http://www.w3.org/2000/svg" viewBox="0 0 659.4 658.13"><defs><style>.uuid-ba2834e0-4f9a-4433-ade3-e07069bc6fa9{fill:#fff;}</style></defs><g id="uuid-c86a05d9-5884-44b0-b1d8-bda27f2a262c"><path class="uuid-ba2834e0-4f9a-4433-ade3-e07069bc6fa9" d="M356.14,424.36l-87.82,227.77c-3.72,9.64-17.96,7.01-18.1-3.28l-1.61-169.59c-.51-54.02-33.95-102.28-84.39-121.77L5.94,296.53c-9.56-3.72-6.94-17.96,3.28-18.03l244.13-2.34c9.34-.14,18.18,4.46,23.51,12.12l13.43,19.42,51.4,74.03,11.32,16.35c5.33,7.66,6.5,17.52,3.14,26.28Z"/><path class="uuid-ba2834e0-4f9a-4433-ade3-e07069bc6fa9" d="M303.26,233.77L391.08,6c3.72-9.64,17.96-7.01,18.1,3.28l1.61,169.59c.51,54.02,33.95,102.28,84.39,121.77l158.27,60.96c9.56,3.72,6.94,17.96-3.28,18.03l-244.13,2.34c-9.34.14-18.18-4.46-23.51-12.12l-13.43-19.42-51.4-74.03-11.32-16.35c-5.33-7.66-6.5-17.52-3.14-26.28Z"/></g></svg>