<?xml version="1.0" encoding="UTF-8"?>
<svg id="Layer_1" data-name="Layer 1" xmlns="http://www.w3.org/2000/svg" viewBox="0 0 384.9781 376.8189">
  <path d="M322.4414,99.3534c-6.1293-7.7233-14.1278-13.5477-23.9376-17.4171-.8405-.3332-1.6953-.6375-2.5648-.9417-1.4924-2.7388-3.2023-5.3319-5.144-7.7523-2.275-2.869-4.8252-5.4918-7.6363-7.8535l-.0289.029c-1.4201-1.1738-2.9125-2.2895-4.463-3.3763-.3477-.2172-.71-.4493-1.0723-.6955-1.0288-.6665-2.1011-1.3181-3.1733-1.9273-.4492-.2462-.9129-.4924-1.3621-.7245-.3913-.2172-.7825-.3913-1.1737-.6085-.1159-.058-.2319-.116-.3333-.1733l-1.1592-.5512-.1449-.058c-.3333-.1592-.6666-.3042-1.0143-.4493-.1449-.0863-.3043-.1592-.4637-.2172-.1014-.029-.2173-.087-.3187-.116-.2464-.1302-.5072-.2172-.7535-.3332-.3477-.1443-.71-.2752-1.0723-.4203-.2898-.1302-.5796-.2462-.8695-.3623-.1014-.0283-.1884-.0432-.2753-.1012-.3912-.116-.7824-.2611-1.1592-.3913-.3623-.145-.71-.2752-1.0723-.3913h-.029c-.2608-.087-.5216-.1741-.7969-.2752-.0724-.0142-.1304-.029-.2029-.058-.0289-.0142-.0434-.0142-.0724-.029-.0434-.0142-.0869-.029-.1304-.0432-.0145,0-.0435-.0149-.058-.0149-.1739-.029-.3332-.087-.5071-.145-.0435-.0283-.0869-.0283-.1304-.0432-.0724-.029-.1449-.0432-.2173-.058-.2319-.058-.4492-.145-.6811-.2031-.1304-.058-.2463-.0863-.3768-.1012-.0289-.029-.0579-.029-.0869-.0432-.1304-.0149-.2608-.0729-.3912-.1019-.2029-.058-.3913-.116-.6086-.1741-.2463-.0722-.5216-.1302-.7824-.2172-.0869,0-.1594-.029-.2463-.058-.5361-.1302-1.1013-.2752-1.6664-.3913-.5506-.1443-1.1157-.2462-1.6953-.3913-.5651-.1302-1.1303-.2172-1.7098-.3332-1.1592-.2172-2.3329-.4486-3.5211-.6085-.4492-.087-.9129-.145-1.3766-.2024-.0724-.0149-.1304-.0149-.2029-.0149-.2608-.058-.5361-.087-.8114-.116-.3043-.058-.6231-.087-.9274-.116-.565-.058-1.1447-.1302-1.7243-.1882-.5796-.058-1.1592-.116-1.7532-.145-.3913-.058-.7825-.087-1.1882-.116-.4058-.0283-.8114-.0432-1.2172-.0863-.6665-.0439-1.3331-.0729-2.0141-.1019-.6521-.029-1.3041-.058-1.9707-.087-.5506,0-1.1013-.029-1.6518-.029-.1884-.0142-.3623-.0142-.5506-.0142-.5361-.0149-1.0868-.0149-1.6374-.0149h-65.0896c-.6231,0-1.2606,0-1.8692.029-.6376,0-1.2606.029-1.8692.029-.4637.029-.9129.029-1.3621.058h-.0435c-.8694.029-1.7388.087-2.5937.145-.5361.029-1.0723.0722-1.594.1012-.1594.029-.3332.029-.4926.058-.4637.029-.9274.087-1.3766.116-1.2171.116-2.4343.2462-3.637.4203-.6231.0729-1.2316.1592-1.8547.2752-.5941.058-1.1737.1599-1.7533.2462l-1.3911.2611c-.4636.0722-.9273.1592-1.391.2462-.2608.058-.5072.087-.7535.1592-.7245.145-1.42.2901-2.13.4493h-.0435c-.0869.0149-.1739.0439-.2608.058-.6376.1592-1.2606.2901-1.8837.4493h-.0145c-.6231.1592-1.2461.3332-1.8692.4924-.4348.116-.884.2321-1.3186.3623-.029,0-.0724,0-.1014.029-.2753.058-.5361.145-.7969.2321-.4782.1302-.9708.2752-1.449.4203-.2898.087-.5796.1882-.8694.2752-.3188.1019-.6231.2031-.9274.3042-.4058.1302-.7969.2611-1.1882.4061-.2029.058-.4057.1302-.6086.2024-.8114.2901-1.6229.5943-2.4199.8986-.4057.1592-.8114.3191-1.2026.4783-.3913.1592-.7969.3184-1.1882.4924-.5941.2462-1.1737.5073-1.7678.7535l-.565.2462c-2.9125,1.3188-5.7236,2.7678-8.4478,4.347-.8984.5222-1.7968,1.0577-2.6806,1.6231h-.029c-.5072.3042-1.0143.6375-1.5214.9707-.4203.2752-.8405.5512-1.2606.8695-1.8258,1.246-3.5936,2.5648-5.3179,3.9558-.0145,0-.0289,0-.0434.029-.8405.6665-1.6809,1.362-2.4923,2.0865-.4057.3623-.8259.7245-1.2316,1.0868-.4058.3913-.8259.7535-1.2172,1.1448-.4926.4351-.9708.9127-1.449,1.391-.3042.2752-.6231.6085-.9273.8986-.7825.7967-1.5359,1.6082-2.2605,2.4197-.3913.3913-.7535.8115-1.1158,1.246-.3768.4203-.739.8405-1.0868,1.2608-1.1448,1.362-2.2605,2.753-3.3327,4.202-.5361.7245-1.0723,1.478-1.5795,2.2025-.4926.6955-.9853,1.42-1.4635,2.1735-.0869.116-.1594.2031-.2029.3042-.3332.5363-.681,1.0436-.9997,1.5941-.5941.9134-1.1593,1.8693-1.6954,2.84-.4202.7535-.8549,1.507-1.2606,2.2895-.0724.116-.1159.2172-.1739.3332-.3768.7245-.739,1.42-1.0868,2.1445-.0724.1309-.1594.2752-.2174.4203-.3623.7245-.71,1.449-1.0432,2.2025-.3623.7684-.6955,1.5509-1.0288,2.3617-.6955,1.5941-1.3331,3.2313-1.9271,4.8833-.1884.4924-.3623.9707-.5217,1.449-.2608.7535-.5216,1.536-.7679,2.3037-.2463.7535-.4782,1.536-.71,2.3476-.0145.058-.0435.1019-.058.1882-.2608.8695-.5071,1.7681-.7389,2.6808-.2609.9707-.4927,1.9273-.7245,2.869l-6.2018,27.343c-3.724,15.9391-3.3327,29.8929,1.1592,41.6449-7.7812,4.4333-13.6206,11.9975-15.7797,21.271-2.2749,9.8678-3.3327,19.0253-3.1878,27.4442.0289.8115.0434,1.6231.0869,2.4204.0724,1.8686.2318,3.6798.4492,5.4338.0289.3906.0869.7528.1304,1.1441.058.3623.1014.7245.1595,1.1158.0579.3332.1014.6665.1594,1.0004.0869.6226.2029,1.2311.3332,1.8113.0435.2894.1014.5646.1594.8398.4637,2.3186,1.0578,4.5791,1.7678,6.7526.1449.4344.2898.8837.4492,1.333.2029.5795.4202,1.1738.6665,1.7823,0,.058.0435.1019.058.1599.1159.2894.2318.5646.3477.8688.2029.4783.4058.9997.6376,1.478.0579.145.1304.3042.2029.4493.2463.5795.5216,1.1158.7969,1.6662.3332.6955.6955,1.391,1.0577,2.0433.3623.6665.7245,1.304,1.1158,1.9124.029.087.0579.145.1014.2031.3623.5795.7245,1.1879,1.1157,1.7532.0435.058.087.1309.1304.1882.3913.5943.8114,1.1738,1.2172,1.754.4492.6226.9129,1.2311,1.391,1.8396,6.6655,8.3898,15.5334,14.5191,26.5169,18.3737,1.478,2.724,3.1878,5.2887,5.1296,7.7375.3912.4783.7824.9566,1.1737,1.42.6521.7825,1.3476,1.536,2.0431,2.2605.2174.2321.4347.4493.6521.6955.9129.8986,1.8548,1.7823,2.8111,2.6228.2608.2462.5216.4493.7824.6665.2609.2321.5361.4783.8114.6665h.0145l.0145-.029c.5072.4203,1.0288.8405,1.565,1.2318s1.0723.7825,1.6229,1.1738c.2608.1882.5506.3913.8259.5505,1.391.9566,2.84,1.8693,4.347,2.6808.2898.1592.5796.3332.8694.4783.6811.3623,1.3911.7245,2.1156,1.0577.4057.2172.8405.4061,1.2606.6085.2029.087.4057.1882.6231.2752.5361.2321,1.0868.4783,1.6374.6955.8984.3913,1.8258.7535,2.7821,1.0868.5216.1741,1.0578.3623,1.5795.5363.6955.2462,1.4055.4641,2.1155.6955.3623.1012.7245.2031,1.0868.3191.7245.2024,1.4635.4054,2.217.5936.3768.087.7535.1741,1.1302.2611.0435.029.1014.029.145.0439.0579.0283.1014.0283.1594.0573h.0145c.1014,0,.2029.029.3043.058.0144,0,.0289.029.0434.029.0869,0,.1884.029.2753.029,1.2461.3042,2.5213.5512,3.8254.8115.1304.029.2608.0439.3913.058.1014.029.2173.0439.3187.0722.2029.029.3913.058.5796.087h.0289c.5217.087,1.0433.1741,1.5795.2469.4637.0863.9418.1443,1.42.2024.0724.029.145.029.2174.029.1594.029.3187.058.4926.0729.1595.0142.3333.0283.4927.0432.1159.0149.2463.0432.3768.0432.0869.029.1594.029.2463.029.0145,0,.029.0149.029.0149.0145,0,.0289.0142.0434.0142.1594.029.3043.029.4637.058h.1449c.1159.029.2319.029.3478.029.0434.0149.0869.0149.1304.029.1304.0149.2463.029.3768.029.6086.0729,1.2316.1309,1.8548.1882.1159,0,.2318.029.3477.029h.2173c.4203.058.8405.087,1.2606.087.2319.029.4492.058.6811.058.2753.029.5506.029.8259.058h.0145c.4057.0149.7969.029,1.2026.058.4637,0,.9419.0432,1.4056.0432.4637.0149.9274.0439,1.391.0439.174.0142.3333.0142.5072.0142.3477,0,.71.0149,1.0723.0149s.7245.0142,1.0723.0142h65.4373c.652,0,1.3041-.029,1.9561-.029.5216,0,1.0432-.029,1.565-.058h.681c.4637-.0283.9129-.0432,1.3621-.0863.2463-.0149.4782-.0149.71-.0149.2319-.029.4637-.029.6956-.058.2463,0,.5071-.029.7389-.029.2464-.029.4927-.058.739-.058.1595-.0142.3043-.0142.4637-.029.1159-.0142.2174-.029.3333-.029.2318-.029.4636-.058.6955-.0863h.1304c.0435,0,.0869,0,.1304-.0149.0869,0,.1739,0,.2608-.029.1739-.0142.3477-.029.5216-.029.4782-.058.9564-.087,1.4345-.145.2464-.029.4782-.058.7101-.087.0724-.029.1594-.029.2318-.029.2029-.0283.4058-.0432.6231-.0863.145-.0149.3043-.0149.4637-.0439.0724,0,.1594-.029.2319-.029.0869-.029.1594-.029.2318-.029.0579,0,.1014-.029.1594-.029.4637-.058.9274-.145,1.3911-.1882.5941-.087,1.1882-.2031,1.7823-.2901.4927-.0722.9853-.1592,1.478-.2462.1304-.029.2463-.058.3623-.087.0579,0,.1159,0,.1594-.029.5216-.0722,1.0288-.1882,1.5505-.3042.1014,0,.2174-.029.3187-.058.3333-.0722.6666-.1302.9854-.1882.1449-.058.2897-.087.4347-.116.5796-.1153,1.1592-.2462,1.7388-.3913.652-.1592,1.2896-.3042,1.9271-.4634.4927-.145.9853-.2611,1.478-.4203.5651-.145,1.1302-.3042,1.6808-.4783.5072-.145.9998-.3042,1.507-.4493.0869-.029.1884-.058.2753-.0863.5216-.1599,1.0287-.334,1.5505-.4931.1014-.058.2318-.087.3332-.145.3332-.1012.6666-.2172.9998-.3332.1014-.029.1884-.058.2898-.087.1449-.0722.2753-.1012.4202-.1592.0579,0,.1014-.029.1594-.058.0724-.029.145-.058.2174-.087.2173-.0722.4347-.1592.6376-.2172.0869-.0432.1739-.058.2463-.087.5216-.2172,1.0288-.3913,1.5359-.6085,1.1592-.4493,2.2895-.9276,3.4196-1.449.2319-.087.4637-.2031.6956-.2752.0434-.0432.1014-.058.1449-.087.2753-.116.5506-.2604.8259-.3913.6086-.2894,1.2172-.5653,1.8113-.8695.4927-.2462.9708-.4924,1.449-.7245.9419-.5066,1.8837-.9997,2.8111-1.5502.1594-.058.3043-.145.4637-.2321.6521-.3913,1.3041-.7535,1.9416-1.1448h.0145c.4927-.3042.9709-.6085,1.449-.9127q.0145,0,.029.029c14.8524-9.4186,26.4879-23.025,33.7909-40.0218,2.3184-5.3758,4.1877-11.0848,5.5932-17.1122l5.086-22.8948c4.1587-17.7355,3.7674-33.023-1.1013-45.6728,8.1434-4.1878,14.3017-11.8241,16.7215-21.5179l.1159-.4493c6.3322-27.4152,3.1878-49.3095-9.3606-65.0894ZM275.4645,118.6398c-.4057,3.7817-1.1157,7.8245-2.1011,12.1135-.5796,2.3186-1.9706,4.2459-3.9703,5.2166-1.3186.6375-2.5503.6955-3.0574.6955-22.6045.087-33.9213.145-45.8756,0-1.2317-.029-3.4487-.029-6.2308,0-3.8109-.2752-6.6075-1.391-8.2304-2.1735-.7534-.3623-9.3461-4.6513-11.621-13.7076-.2898-1.1448-.4492-2.3476-.4492-2.3476-.1014-.8257-.145-1.5792-.145-2.2598l-.2463-25.2423c-.0145-1.5212-2.1445-1.9124-2.6951-.4776l-11.6356,30.1823c-.2174.5363-.4202,1.1158-.6376,1.6521l-.7969,2.0575c-.2753.7535-.3477,1.536-.2029,2.3186.1014.5795.3332,1.1016.6666,1.6082l11.3313,16.3304c.565.7825,1.3621,1.362,2.2894,1.6231.3913.1302.797.1882,1.2172.1882l16.1709-.1592c32.1391.8837,58.656,8.462,48.3825,52.2082l-5.057,22.749c-8.1434,34.8343-35.124,52.2655-68.5672,52.2655h-64.9011c-1.4345,0-2.8256,0-4.1877-.0863-16.5187-.6382-27.8934-5.2314-34.5444-13.5052-.2463-.3042-.4781-.6226-.71-.9417-7.1146-9.7086-8.2014-24.1407-3.8253-43.0649.8549-3.6508,3.6514-5.8972,7.303-5.8972l8.6941.058h5.1295l32.4869.1302,21.1265.087c9.549,0,5.6222,9.5636,4.2167,16.0261h15.4464l5.912-25.865c-13.6787,0-29.8206,1.0868-44.4846.145-14.2583-.9276-27.1254-3.7966-35.008-11.4909-.5217-.4924-1.0143-1.0287-1.4925-1.5792-6.2307-7.158-8.5781-18.0836-4.7238-34.559l6.1873-27.256c3.8254-16.3735,11.8239-28.8932,22.6915-37.5582,3.9123-3.1442,8.2014-5.796,12.8383-7.9115,9.7808-4.5211,20.9816-6.7958,33.0229-6.7958h64.9156c4.492,0,8.6506.2752,12.4615.7974,9.6649,1.3471,17.1562,4.347,22.561,8.9983,8.7955,7.5344,12.1138,19.4307,10.346,35.4279Z"/>
  <path d="M265.1185,83.2119c-5.4048-4.6513-12.8961-7.6512-22.561-8.9983-3.8109-.5222-7.9696-.7974-12.4615-.7974h-64.9156c-12.0413,0-23.2421,2.2747-33.0229,6.7958-4.6368,2.1155-8.926,4.7673-12.8383,7.9115-10.8676,8.6651-18.866,21.1847-22.6915,37.5582l-6.1873,27.256c-3.8543,16.4754-1.5069,27.401,4.7238,34.559.4782.5505.9708,1.0868,1.4925,1.5792,7.8826,7.6943,20.7497,10.5633,35.008,11.4909,14.664.9417,30.806-.145,44.4846-.145l-5.912,25.865h-15.4464c1.4055-6.4625,5.3323-16.0261-4.2167-16.0261l-21.1265-.087-32.4869-.1302h-5.1295l-8.6941-.058c-3.6515,0-6.4481,2.2464-7.303,5.8972-4.376,18.9242-3.2893,33.3562,3.8253,43.0649.2319.3191.4637.6375.71.9417,6.651,8.2738,18.0257,12.867,34.5444,13.5052,1.3621.0863,2.7532.0863,4.1877.0863h64.9011c33.4432,0,60.4237-17.4313,68.5672-52.2655l5.057-22.749c10.2735-43.7462-16.2433-51.3245-48.3825-52.2082l-16.1709.1592c-.4202,0-.8259-.058-1.2172-.1882-.9273-.2611-1.7243-.8405-2.2894-1.6231l-11.3313-16.3304c-.3333-.5066-.5651-1.0287-.6666-1.6082-.1449-.7825-.0724-1.565.2029-2.3186l.7969-2.0575c.2174-.5363.4202-1.1158.6376-1.6521l11.6356-30.1823c.5506-1.4349,2.6806-1.0436,2.6951.4776l.2463,25.2423c0,.6806.0435,1.4342.145,2.2598,0,0,.1594,1.2028.4492,2.3476,2.2749,9.0563,10.8676,13.3453,11.621,13.7076,1.6229.7825,4.4195,1.8983,8.2304,2.1735,2.7822-.029,4.9991-.029,6.2308,0,11.9543.145,23.2711.087,45.8756,0,.5071,0,1.7388-.058,3.0574-.6955,1.9996-.9707,3.3907-2.898,3.9703-5.2166.9854-4.289,1.6954-8.3318,2.1011-12.1135,1.7678-15.9971-1.5505-27.8934-10.346-35.4279ZM183.2351,146.3882l1.6808,2.4346c.7969,1.1299.9708,2.6079.4782,3.8978l-13.0701,33.9067c-.5651,1.42-2.6806,1.0287-2.6951-.4924l-.2463-25.2565c-.0725-8.0276-5.0426-15.2146-12.5485-18.1126l-23.5609-9.0563c-1.42-.5505-1.0287-2.695.4927-2.695l36.3267-.3474c1.391-.0149,2.7096.6516,3.4921,1.7964l1.9996,2.898,7.6508,11.0268Z" style="fill: #fff;"/>
  <path d="M185.3941,152.7205l-13.0701,33.9067c-.5651,1.42-2.6806,1.0287-2.6951-.4924l-.2463-25.2565c-.0725-8.0276-5.0426-15.2146-12.5485-18.1126l-23.5609-9.0563c-1.42-.5505-1.0287-2.695.4927-2.695l36.3267-.3474c1.391-.0149,2.7096.6516,3.4921,1.7964l1.9996,2.898,7.6508,11.0268,1.6808,2.4346c.7969,1.1299.9708,2.6079.4782,3.8978Z"/>
  <path d="M185.3894,152.7278l-13.0701,33.8925c-.5651,1.4342-2.6807,1.0429-2.6951-.4924l-.2464-25.2423c-.0724-8.0276-5.0425-15.2146-12.5484-18.1126l-23.5609-9.0705c-1.42-.5505-1.0288-2.6808.4927-2.6808l36.3266-.3481c1.3911-.0283,2.7097.6523,3.4922,1.7971l1.9996,2.898,7.6507,11.0126,1.6809,2.4346c.7969,1.1299.9708,2.6079.4782,3.9119Z" style="fill: none;"/>
</svg>