<?xml version="1.0" encoding="UTF-8"?>
<svg id="Layer_1" data-name="Layer 1" xmlns="http://www.w3.org/2000/svg" viewBox="0 0 829.3489 374.7998">
  <path d="M765.6314,99.1899c-6.5703-8.25-15.1001-14.5601-25.4004-18.77-1.1396-1.8003-2.3896-3.5601-3.7197-5.25-13.29-16.7002-34.0698-25.1699-61.77-25.1699h-59.75c-17.3799,0-33.79,3.8296-47.9399,11.1196-7.6001-6.04-17.2002-9.2998-27.7803-9.2998h-43.4497c-9.1802,0-18.0801,1.4199-26.5298,4.2202-5.7705-2.8003-12.2202-4.2202-19.25-4.2202h-45.7803c-9.8101,0-19.3198,1.6602-28.3398,4.9302-5.1299-2.6602-10.8403-4.25-17.0303-4.75-1.4199-.1201-2.8599-.1802-4.29-.1802h-51.21c-10.6099,0-20.9497,3.4497-29.3999,9.6401-1.8999-1.1802-3.8901-2.27-5.9399-3.27-11.1802-5.4302-24.77-8.1899-40.3901-8.1899h-59.75c-23.5098,0-44.8398,6.8696-61.6899,19.8398-16.9297,13.0498-28.6299,31.7197-33.8599,54.0698l-5.6899,25.1001c-3.1299,13.46-3.4102,25.7598-.8203,36.7002-6.2598,5.52-10.7197,12.9399-12.6299,21.2197-6.5898,28.5103-3.0601,51.6104,10.5098,68.6699,6.5605,8.25,15.0903,14.5503,25.4004,18.7803,1.1602,1.8301,2.4102,3.5898,3.73,5.25,13.2798,16.6997,34.0698,25.1699,61.77,25.1699h59.75c17.3599,0,33.75-3.7998,47.8701-11.0698,7.6899,6.3496,17.4897,9.77,28.3696,9.77h51.21c7.3999,0,14.6401-1.6304,21.2402-4.75,6.1899,3.1299,13.2202,4.75,20.6597,4.75h51.2104c7.1001,0,14.0601-1.5,20.4399-4.3804,6.02,2.8804,12.79,4.3804,19.9102,4.3804h51.21c10.6797,0,21.0698-3.4805,29.5498-9.7402,12.1299,7.3301,27.4399,11.04,45.6602,11.04h59.75c23.5098,0,44.8496-6.8599,61.6899-19.8398,16.9297-13.04,28.6299-31.71,33.8398-53.9902l4.7002-21.1299c3.4697-14.8799,3.7896-28.3398.96-40.1401,6.4697-5.4097,11.1797-12.8799,13.3198-21.3999l.1401-.4902.0498-.21c6.54-28.3496,3.0103-51.3696-10.5298-68.4097ZM766.4111,164.4399l-.1099.3999c-2.2202,8.9199-7.8901,15.9502-15.3799,19.8101,4.48,11.6299,4.8301,25.7197,1.0098,42.0498l-4.6797,21.0698c-9.54,40.7803-42.4102,66.1104-85.8003,66.1104h-59.7397c-19.6201,0-35.1602-4.6104-46.3604-13.7402l-.0098.0103c-7.2998,7.75-17.5898,12.4399-28.8398,12.4399h-51.21c-7.4302,0-14.1802-2.0103-19.7202-5.7803-6.04,3.6904-13.1201,5.7803-20.6299,5.7803h-51.2104c-7.7598,0-14.7896-2.2002-20.4395-6.2998-6.2305,4.0195-13.6104,6.2998-21.4604,6.2998h-51.21c-10.9297,0-20.3901-4.3501-26.6499-12.2402-.0098-.0098-.0098-.02-.02-.0298-13.8301,8.77-30.6997,13.5601-49.5698,13.5601h-59.75c-24.5103,0-42.6602-7.2002-53.9399-21.3901-1.79-2.25-3.3604-4.6201-4.7202-7.1299-10.1099-3.54-18.2798-9.1899-24.4102-16.9102-11.5801-14.5498-14.4697-34.7998-8.5996-60.1802,1.98-8.5498,7.3599-15.5098,14.5195-19.5698-4.1299-10.8301-4.4897-23.6597-1.0698-38.3398l5.71-25.1602c9.5303-40.7798,42.4102-66.1099,85.79-66.1099h59.75c19.9502,0,35.6899,4.77,46.9302,14.2002,7.2998-7.7202,17.5698-12.3901,28.7998-12.3901h51.21c9.2002,0,15.8203,2.8101,20.4004,6.0498,8.9795-3.9199,18.9097-6.0498,29.2598-6.0498h45.7803c8.0698,0,14.0698,2.3599,18.3496,5.1899,8.48-3.3799,17.7603-5.1899,27.4302-5.1899h43.4497c10.6704,0,19.9502,4.1401,26.21,11.6997,13.8301-8.7397,30.6802-13.5098,49.5103-13.5098h59.75c24.5,0,42.6499,7.1899,53.9302,21.3901,1.79,2.2397,3.3599,4.6099,4.73,7.1299,10.1099,3.5298,18.27,9.1802,24.3999,16.8999,11.5498,14.52,14.4399,34.6899,8.6099,59.9302Z" style="fill: #fff;"/>
  <path d="M766.4111,164.4399l-.1099.3999c-2.2202,8.9199-7.8901,15.9502-15.3799,19.8101,4.48,11.6299,4.8301,25.7197,1.0098,42.0498l-4.6797,21.0698c-9.54,40.7803-42.4102,66.1104-85.8003,66.1104h-59.7397c-19.6201,0-35.1602-4.6104-46.3604-13.7402l-.0098.0103c-7.2998,7.75-17.5898,12.4399-28.8398,12.4399h-51.21c-7.4302,0-14.1802-2.0103-19.7202-5.7803-6.04,3.6904-13.1201,5.7803-20.6299,5.7803h-51.2104c-7.7598,0-14.7896-2.2002-20.4395-6.2998-6.2305,4.0195-13.6104,6.2998-21.4604,6.2998h-51.21c-10.9297,0-20.3901-4.3501-26.6499-12.2402-.0098-.0098-.0098-.02-.02-.0298-13.8301,8.77-30.6997,13.5601-49.5698,13.5601h-59.75c-24.5103,0-42.6602-7.2002-53.9399-21.3901-1.79-2.25-3.3604-4.6201-4.7202-7.1299-10.1099-3.54-18.2798-9.1899-24.4102-16.9102-11.5801-14.5498-14.4697-34.7998-8.5996-60.1802,1.98-8.5498,7.3599-15.5098,14.5195-19.5698-4.1299-10.8301-4.4897-23.6597-1.0698-38.3398l5.71-25.1602c9.5303-40.7798,42.4102-66.1099,85.79-66.1099h59.75c19.9502,0,35.6899,4.77,46.9302,14.2002,7.2998-7.7202,17.5698-12.3901,28.7998-12.3901h51.21c9.2002,0,15.8203,2.8101,20.4004,6.0498,8.9795-3.9199,18.9097-6.0498,29.2598-6.0498h45.7803c8.0698,0,14.0698,2.3599,18.3496,5.1899,8.48-3.3799,17.7603-5.1899,27.4302-5.1899h43.4497c10.6704,0,19.9502,4.1401,26.21,11.6997,13.8301-8.7397,30.6802-13.5098,49.5103-13.5098h59.75c24.5,0,42.6499,7.1899,53.9302,21.3901,1.79,2.2397,3.3599,4.6099,4.73,7.1299,10.1099,3.5298,18.27,9.1802,24.3999,16.8999,11.5498,14.52,14.4399,34.6899,8.6099,59.9302Z"/>
  <path d="M547.1502,95.3924l-35.6923,155.1797c-.3716,1.6022-.947,3.0951-1.6898,4.457-2.8476,5.2217-8.1859,8.4771-14.3396,8.4771h-51.2118c-7.7564,0-11.6381-5.1707-9.8316-12.9341l25.6057-111.2068h-14.4779l-25.6061,111.2068c-1.8132,7.7633-8.2802,12.9341-16.0365,12.9341h-51.2118c-7.756,0-11.6377-5.1707-9.8242-12.9341l25.6057-111.2068h-16.0365l-25.6061,111.2068c-1.8132,7.7633-8.2802,12.9341-16.0362,12.9341h-51.2121c-.7062,0-1.3836-.0437-2.0244-.1311-3.2118-.4151-5.5858-1.8716-6.9406-4.1001-1.3324-2.214-1.6823-5.1926-.8591-8.7028l35.6923-155.1797c.3424-1.4711.852-2.8548,1.5149-4.122.6483-1.2599,1.4491-2.4179,2.3669-3.4447,3.0151-3.3646,7.3335-5.3601,12.1548-5.3601h51.2047c1.981,0,3.6051.2549,4.9233.7283,9.2342,3.2699,3.8085,16.925,1.5437,26.4289,5.9282-13.8153,17.7189-22.3578,30.7914-25.6278,4.0563-1.0196,8.2368-1.5293,12.4023-1.5293h45.7793c1.7986,0,3.2406.2622,4.3767.7283,6.8894,2.8475,2.8331,13.4074,1.0487,20.7338,7.086-11.4047,17.9009-17.8717,29.3929-20.3187,3.6197-.772,7.3047-1.1434,10.9607-1.1434h43.4483c1.7115,0,3.2338.2476,4.5446.7283,1.6895.6045,3.0368,1.5876,3.9984,2.8767,1.6749,2.2576,2.1848,5.4693,1.2816,9.3218Z" style="fill: #fff;"/>
  <path d="M265.5503,133.4153c-.7795,3.1024-3.1026,5.4329-6.4669,5.4329h-62.0708c-9.0522,0-5.4329-8.7975-4.1363-14.7475h-14.2304l-5.4257,23.7998c27.5868,0,59.9002-3.3864,73.4315,12.0893,6.2557,7.1516,8.5063,18.3378,4.4134,35.758l-4.6537,20.945c-3.4518,14.7693-10.5816,26.1376-20.2749,34.0976-11.3536,9.3437-26.2248,14.0119-42.8296,14.0119h-59.7473c-17.8863,0-29.8153-4.5444-36.3043-13.3856-6.5544-8.9286-7.5519-22.2268-3.5247-39.6397.772-3.3573,3.3647-5.4256,6.7219-5.4256l12.7301.051,49.3477.2039c8.7901,0,5.1708,8.7975,3.8743,14.7402h14.2233l5.4329-23.7926c-25.6423,0-60.6213,4.1511-74.5385-11.8927-5.7316-6.6054-7.8872-16.6482-4.3405-31.8181l5.6878-25.0816c7.501-32.073,32.3276-48.1095,63.1045-48.1095h59.7473c4.1363,0,7.9598.2403,11.4702.7283,11.514,1.5876,19.6779,5.7679,24.6737,12.4461,6.6419,8.8558,7.7268,22.1248,3.6851,39.5888Z" style="fill: #fff;"/>
  <path d="M684.2704,81.3816c-3.5098-.4902-7.3398-.73-11.4697-.73h-59.75c-11.0801,0-21.4004,2.0796-30.4004,6.2397-4.2598,1.96-8.21,4.3901-11.8198,7.2798-10,7.9805-17.3599,19.5205-20.8799,34.5903l-5.6899,25.0801c-3.5503,15.1699-1.3901,25.21,4.3398,31.8198.4399.5.8901.98,1.3701,1.4502,7.2598,7.0698,19.1099,9.71,32.23,10.5596,13.5.8804,28.3501-.1196,40.9399-.1196l-5.4302,23.7998h-14.23c1.3003-5.9497,4.9199-14.75-3.8701-14.75l-19.4497-.0801-29.8999-.1196-4.7202-.0103-8.0098-.04c-3.3599,0-5.9399,2.0698-6.7202,5.4302-4.0298,17.4102-3.0298,30.71,3.52,39.6396.21.29.4302.5703.6602.8501,6.1099,7.6401,16.5898,11.8604,31.79,12.4502,1.25.0601,2.54.0801,3.8599.0801h59.7402c30.7798,0,55.6099-16.04,63.1099-48.1099l4.6499-20.9404c9.46-40.2798-14.9502-47.2397-44.5303-48.0596l-14.8896.1396c-.3799,0-.7603-.0498-1.1201-.1602-.8501-.2397-1.5898-.7695-2.1001-1.5098l-10.4297-15.0298c-.3101-.4502-.52-.9502-.6201-1.4702-.1299-.71-.0698-1.4502.1899-2.1299l.73-1.8901c.1968-.5132.3931-1.0269.5898-1.54l10.7104-27.77c.5098-1.3198,2.46-.96,2.4795.4502l.2202,23.23c.0073.6245.0474,1.3213.1426,2.0747,0,0,.1387,1.0967.4077,2.165,2.0952,8.3208,10.0088,12.2744,10.7002,12.6094,1.4917.7231,4.0688,1.7422,7.5713,1.9917,2.5693-.0244,4.6001-.0073,5.7388.0068,11.0083.1348,21.4155.0796,42.2295-.0078.4644-.002,1.5942-.0356,2.8115-.6255,1.8438-.8936,3.1201-2.6685,3.6587-4.8145,7.0796-30.6299-1.5903-48.3398-28.3604-52.0298ZM629.6705,147.8015l1.5498,2.2397c.73,1.0503.8896,2.4004.4297,3.6001l-12.0298,31.2002c-.5103,1.3198-2.46.96-2.48-.4502l-.2197-23.23c-.0703-7.3999-4.6504-14.0098-11.5605-16.6802l-21.6797-8.3496c-1.3101-.5103-.9502-2.4604.4502-2.4702l33.4399-.3198c1.2798-.02,2.4897.6099,3.2197,1.6597l1.8403,2.6602,7.04,10.1401Z" style="fill: #fff;"/>
</svg>