<?xml version="1.0" encoding="UTF-8"?>
<svg id="Layer_1" data-name="Layer 1" xmlns="http://www.w3.org/2000/svg" xmlns:xlink="http://www.w3.org/1999/xlink" viewBox="0 0 809.3282 417.0018">
  <g id="type">
    <a xlink:href="100">
      <path id="type_PathItem_" data-name="type &amp;lt;PathItem&amp;gt;" d="M756.4026,155.3501l-.1099.3999c-2.2202,8.9199-7.8901,15.9502-15.3799,19.8101,4.48,11.6299,4.8301,25.7197,1.0098,42.0498l-4.6797,21.0698c-9.54,40.7803-42.4102,66.1104-85.8003,66.1104h-59.7397c-19.6201,0-35.1602-4.6104-46.3604-13.7402l-.0098.0103c-7.2998,7.75-17.5898,12.4399-28.8398,12.4399h-51.21c-7.4302,0-14.1802-2.0103-19.7202-5.7803-6.04,3.6904-13.1201,5.7803-20.6299,5.7803h-51.2104c-7.7598,0-14.7896-2.2002-20.4395-6.2998-6.2305,4.0195-13.6104,6.2998-21.4604,6.2998h-51.21c-10.9297,0-20.3901-4.3501-26.6499-12.2402-.0098-.0098-.0098-.02-.02-.0298-13.8301,8.77-30.6997,13.5601-49.5698,13.5601h-59.75c-24.5103,0-42.6602-7.2002-53.9399-21.3901-1.79-2.25-3.3604-4.6201-4.7202-7.1299-10.1099-3.54-18.2798-9.1899-24.4102-16.9102-11.5801-14.5498-14.4697-34.7998-8.5996-60.1802,1.98-8.5498,7.3599-15.5098,14.5195-19.5698-4.1299-10.8301-4.4897-23.6597-1.0698-38.3398l5.71-25.1602c9.5303-40.7798,42.4102-66.1099,85.79-66.1099h59.75c19.9502,0,35.6899,4.77,46.9302,14.2002,7.2998-7.7202,17.5698-12.3901,28.7998-12.3901h51.21c9.2002,0,15.8203,2.8101,20.4004,6.0498,8.9795-3.9199,18.9097-6.0498,29.2598-6.0498h45.7803c8.0698,0,14.0698,2.3599,18.3496,5.1899,8.48-3.3799,17.7603-5.1899,27.4302-5.1899h43.4497c10.6704,0,19.9502,4.1401,26.21,11.6997,13.8301-8.7397,30.6802-13.5098,49.5103-13.5098h59.75c24.5,0,42.6499,7.1899,53.9302,21.3901,1.79,2.2397,3.3599,4.6099,4.73,7.1299,10.1099,3.5298,18.27,9.1802,24.3999,16.8999,11.5498,14.52,14.4399,34.6899,8.6099,59.9302Z"/>
    </a>
    <a xlink:href="1.4210854715202e-14">
      <path id="type_PathItem_-2" data-name="type &amp;lt;PathItem&amp;gt;" d="M537.1416,86.3025l-35.6923,155.1797c-.3716,1.6022-.947,3.0951-1.6898,4.457-2.8476,5.2217-8.1859,8.4771-14.3396,8.4771h-51.2118c-7.7564,0-11.6381-5.1707-9.8316-12.9341l25.6057-111.2068h-14.4779l-25.6061,111.2068c-1.8132,7.7633-8.2802,12.9341-16.0365,12.9341h-51.2118c-7.756,0-11.6377-5.1707-9.8242-12.9341l25.6057-111.2068h-16.0365l-25.6061,111.2068c-1.8132,7.7633-8.2802,12.9341-16.0362,12.9341h-51.2121c-.7062,0-1.3836-.0437-2.0244-.1311-3.2118-.4151-5.5858-1.8716-6.9406-4.1001-1.3324-2.214-1.6823-5.1926-.8591-8.7028l35.6923-155.1797c.3424-1.4711.852-2.8548,1.5149-4.122.6483-1.2599,1.4491-2.4179,2.3669-3.4447,3.0151-3.3646,7.3335-5.3601,12.1548-5.3601h51.2047c1.981,0,3.6051.2549,4.9233.7283,9.2342,3.2699,3.8085,16.925,1.5437,26.4289,5.9282-13.8153,17.7189-22.3578,30.7914-25.6278,4.0563-1.0196,8.2368-1.5293,12.4023-1.5293h45.7793c1.7986,0,3.2406.2622,4.3767.7283,6.8894,2.8475,2.8331,13.4074,1.0487,20.7338,7.086-11.4047,17.9009-17.8717,29.3929-20.3187,3.6197-.772,7.3047-1.1434,10.9607-1.1434h43.4483c1.7115,0,3.2338.2476,4.5446.7283,1.6895.6045,3.0368,1.5876,3.9984,2.8767,1.6749,2.2576,2.1848,5.4693,1.2816,9.3218Z" style="fill: #fff;"/>
    </a>
    <a xlink:href="1.4210854715202e-14">
      <path id="type_PathItem_-3" data-name="type &amp;lt;PathItem&amp;gt;" d="M255.5417,124.3255c-.7795,3.1024-3.1026,5.4329-6.4669,5.4329h-62.0708c-9.0522,0-5.4329-8.7975-4.1363-14.7475h-14.2304l-5.4257,23.7998c27.5868,0,59.9002-3.3864,73.4315,12.0893,6.2557,7.1516,8.5063,18.3378,4.4134,35.758l-4.6537,20.945c-3.4518,14.7693-10.5816,26.1376-20.2749,34.0976-11.3536,9.3437-26.2248,14.0119-42.8296,14.0119h-59.7473c-17.8863,0-29.8153-4.5444-36.3043-13.3856-6.5544-8.9286-7.5519-22.2268-3.5247-39.6397.772-3.3573,3.3647-5.4256,6.7219-5.4256l12.7301.051,49.3477.2039c8.7901,0,5.1708,8.7975,3.8743,14.7402h14.2233l5.4329-23.7926c-25.6423,0-60.6213,4.1511-74.5385-11.8927-5.7316-6.6054-7.8872-16.6482-4.3405-31.8181l5.6878-25.0816c7.501-32.073,32.3276-48.1095,63.1045-48.1095h59.7473c4.1363,0,7.9598.2403,11.4702.7283,11.514,1.5876,19.6779,5.7679,24.6737,12.4461,6.6419,8.8558,7.7268,22.1248,3.6851,39.5888Z" style="fill: #fff;"/>
    </a>
    <path id="type_CompoundPathItem_" data-name="type &amp;lt;CompoundPathItem&amp;gt;" d="M674.2618,72.2917c-3.5098-.4902-7.3398-.73-11.4697-.73h-59.75c-11.0801,0-21.4004,2.0796-30.4004,6.2397-4.2598,1.96-8.21,4.3901-11.8198,7.2798-10,7.9805-17.3599,19.5205-20.8799,34.5903l-5.6899,25.0801c-3.5503,15.1699-1.3901,25.21,4.3398,31.8198.4399.5.8901.98,1.3701,1.4502,7.2598,7.0698,19.1099,9.71,32.23,10.5596,13.5.8804,28.3501-.1196,40.9399-.1196l-5.4302,23.7998h-14.23c1.3003-5.9497,4.9199-14.75-3.8701-14.75l-19.4497-.0801-29.8999-.1196-4.7202-.0103-8.0098-.04c-3.3599,0-5.9399,2.0698-6.7202,5.4302-4.0298,17.4102-3.0298,30.71,3.52,39.6396.21.29.4302.5703.6602.8501,6.1099,7.6401,16.5898,11.8604,31.79,12.4502,1.25.0601,2.54.0801,3.8599.0801h59.7402c30.7798,0,55.6099-16.04,63.1099-48.1099l4.6499-20.9404c9.46-40.2798-14.9502-47.2397-44.5303-48.0596l-14.8896.1396c-.3799,0-.7603-.0498-1.1201-.1602-.8501-.2397-1.5898-.7695-2.1001-1.5098l-10.4297-15.0298c-.3101-.4502-.52-.9502-.6201-1.4702-.1299-.71-.0698-1.4502.1899-2.1299l.73-1.8901c.1968-.5132.3931-1.0269.5898-1.54l10.7104-27.77c.5098-1.3198,2.46-.96,2.4795.4502l.2202,23.23c.0073.6245.0474,1.3213.1426,2.0747,0,0,.1387,1.0967.4077,2.165,2.0952,8.3208,10.0088,12.2744,10.7002,12.6094,1.4917.7231,4.0688,1.7422,7.5713,1.9917,2.5693-.0244,4.6001-.0073,5.7388.0068,11.0083.1348,21.4155.0796,42.2295-.0078.4644-.002,1.5942-.0356,2.8115-.6255,1.8438-.8936,3.1201-2.6685,3.6587-4.8145,7.0796-30.6299-1.5903-48.3398-28.3604-52.0298ZM619.662,138.7117l1.5498,2.2397c.73,1.0503.8896,2.4004.4297,3.6001l-12.0298,31.2002c-.5103,1.3198-2.46.96-2.48-.4502l-.2197-23.23c-.0703-7.3999-4.6504-14.0098-11.5605-16.6802l-21.6797-8.3496c-1.3101-.5103-.9502-2.4604.4502-2.4702l33.4399-.3198c1.2798-.02,2.4897.6099,3.2197,1.6597l1.8403,2.6602,7.04,10.1401Z" style="fill: #fff;"/>
  </g>
  <g id="tagline">
    <path id="tagline_CompoundPathItem_" data-name="tagline &amp;lt;CompoundPathItem&amp;gt;" d="M506.8613,343.4919c-1.1399-2.3701-2.74-4.8101-4.1499-6.9697l-.6599-1.0103c-2.0103-3.1001-5.7603-8.8701-10.0601-8.8701-.78,0-1.54.1899-2.27.5703-2.54,1.3198-2.1802,3.8696-1.9199,5.73.0798.54.1499,1.0596.1499,1.5.02,1.25-.04,1.9897-.1201,2.8496-.0298.4204-.0698.8604-.0999,1.3901-.1799,3.1401.1199,10.8701.9199,22.9702.1101,1.71,1.3101,3.1299,2.98,3.54,1.9299.4697,3.8601.71,5.72.71,5.1602,0,9.3-1.7803,11.3601-4.8901.0798-.1099.1499-.23.22-.3501q0-.0098.01-.02c.0701-.1099.1299-.2197.1899-.3398.01,0,.01-.0103.01-.02,2.05-3.8398,1.3-9.3398-2.28-16.79ZM502.0012,358.652c-.6399.6099-1.7798.9697-3.0398.9697-1.0601,0-2.03-.25-2.6799-.6899l-2.05-22.8599,3.8098,5.0498c.3401.6899.77,1.4902,1.2202,2.3403,2.52,4.71,6.3298,11.8198,2.7397,15.1899Z"/>
    <path id="tagline_CompoundPathItem_-2" data-name="tagline &amp;lt;CompoundPathItem&amp;gt;" d="M486.8113,343.0222c-.2998-1.9902-2.1399-2.2305-3.24-2.3604-.3599-.0498-.95-.1201-1.0701-.2397-.3899-.3804-.75-2.3101-1.0798-4.0103-.6899-3.6997-1.5601-8.29-4.1399-10.6499-1.05-.9502-2.1101-1.4399-3.1301-1.4399-3.6101,0-5.5,5.9199-6.51,9.1001l-.22.6797c-1.6899,5.1704-3.04,10.5103-3.6199,14.29-.2603,1.7402-1.2102,8.6899-1.04,11.0503.1399,1.79,1.1599,2.8198,2.8098,2.8198.0901,0,.1799-.0103.27-.0103,3.01-.1797,2.8801-3.5596,2.8101-5.3696l-.02-.3901c-.0798-1.2197.05-3.0601,1.1301-4.8501,2.0498-3.4399,6-4.0298,7.1299-4.1299.1401.2397.27.7998.3201,1l.0398.2002c.6201,2.4897,1.6101,9.9297,1.2202,12.02-.0601.3296-.3301.6699-.6101,1.0298-.48.6201-1.1499,1.4702-.8201,2.6401.4302,1.5498,1.54,2.4399,3.04,2.4399,1.4001,0,2.9399-.8101,3.9302-2.0698,2.1399-2.7603,1.25-9.6602.0898-16.0703-.0898-.5-.25-.9697-.4099-1.4199-.24-.71-.45-1.3398-.4202-2.0303h.0103c.6399,0,2.2197-.0898,3.0398-.9097.3301-.3301.5-.75.5-1.21v-.0503l-.01-.0596ZM470.6714,344.2619l3.3298-11.4702c.0103.04.1001.2803.1001.2803.49,1.3501,1.78,7.0098,1.76,8.5l-2.28.8599-2.9099,1.8301Z"/>
    <a xlink:href="100">
      <path id="tagline_PathItem_" data-name="tagline &amp;lt;PathItem&amp;gt;" d="M301.7014,334.5617c-.1401.2104-.4399.4702-1.04.4702-1.3101,0-4.0901-1.25-6.1499-3.1001-1.1501-1.04-3.54-3.1899-2.9001-5.52.29-1.0601,1.1101-1.8999,2.45-2.4897.6802-.3101,1.4702-.4702,2.25-.4702,1.48,0,2.6899.5801,3.23,1.54.4902.8799.48,2.0498-.04,2.8398-.4099.6401-1,.8403-1.3899.9702-.02.0098-.05.02-.0701.0298.3.4199,1.0701,1.2803,1.75,2.0503,1.8501,2.0601,2.4102,2.9297,1.9102,3.6797Z"/>
    </a>
    <path id="tagline_CompoundPathItem_-3" data-name="tagline &amp;lt;CompoundPathItem&amp;gt;" d="M638.9114,357.2919c-.0601-.0298-.1201-.0596-.1699-.0796-.1201-.79-.3401-3.1802-.3801-3.8003-.1699-2.9102.1001-6.1396.3701-9.5498.3999-4.8799.8098-9.9302-.1401-14.0703-.47-2.0498-2.05-3.48-3.8499-3.48-.9102,0-1.79.3701-2.55,1.0601-1.3701,1.2603-1.9299,3.27-2.46,5.21-.49,1.77-1,3.6001-2.1001,4.8804-1.46,1.6899-4.46,3.48-7.1699,3.48-.5901,0-1.1301-.0903-1.6201-.2603-2.45-.8901-3.3401-2.6699-4.28-4.5698-.73-1.48-1.49-3-3.0298-3.9399-.55-.3403-1.0601-.5-1.5601-.5-.29,0-.5801.0601-.8501.1797-1.8599.8203-1.6799,3.9204-1.3799,9.0503l.0698,1.1597c.1301,2.1899.1899,4.1201.25,5.8203.1201,3.5898.2202,6.3901.78,8.98-.51-.3501-1.1099-.4702-1.5598-.5703-.3101-.0698-.6101-.1299-.8201-.2397-1.5601-.73-4.4202-4.8003-4.0901-6.1802.05-.1699.1699-.3896.3201-.6299.27-.46.5999-1.0298.72-1.8398.21-1.3799.6401-7.4102-1.1899-9.52-.4399-.52-1.01-.79-1.6401-.79-.6099,0-1.23.2397-1.9199.7397-2.8799,2.0903-3.3901,8.4102-3.26,11.8403-1.97,1.23-3.99,2.27-6.03,3.1196v-.3799l-.1201-.0298c-.6899-4.4302-3.3999-8-6.0298-11.4502-1.8101-2.3799-3.6899-4.8398-4.8-7.5098-2.52-6.0601-2.1199-10.1104,1.3201-13.52.1899-.1602,2.0098-1.5503,2.1799-1.6699.51-.25,1.47-.4102,2.4399-.4102,1.3501,0,2.46.2998,2.8301.77,1.2,1.5.8899,3.1099.53,4.9697-.1401.7002-.28,1.4204-.3401,2.1602l-.0701.9199.9202-.1099c1.6299-.2002,2.96-1.29,3.7698-3.0601,1.1702-2.6001,1.0303-6.1997-.3298-8.1997-.1399-.2104-1.78-1.8501-1.95-1.9805-1.77-1.3496-3.7002-2.0298-5.73-2.0298-6.8601,0-13.23,8.0601-13.9302,14.73-.3398,3.1602,2.0701,10.02,3.5,12.7002.5.9497,1.2402,2.04,2.0901,3.21-.6101-.6201-1.6501-1.0703-3.4199-1.0703-.52,0-1.01.0303-1.3801.0601-5.53.48-12.52,2.5903-15.54,7.0801-1.6599,2.46-1.99,5.3599-.99,8.6001,2.02,6.54,11.8301,10.0801,20.03,10.0801,5.73,0,10.4102-1.6802,12.8401-4.5903.3699-.4497.7-.9297.99-1.46,3.0898-1.1797,6.28-2.9297,9.28-5.1099,1.3999,2.96,4.3999,6.6802,8.0798,6.7598l.2002.0103c1.5098,0,2.6299-.3701,3.3298-1.1001.3501-.3599.5801-.7998.6902-1.2998.1599.3999.3298.7998.5298,1.1997.9102,1.8701,2.28,4.7002,4.9902,4.6899.6699,0,1.3899-.1699,2.1399-.5098l.0999-.0498.0901-.0801c.271-.2437.9812-.9497,1.1853-2.0898.1926-1.0752-.1145-2.2578-.6353-2.7305-.0649-.0591-.3127-.3491-.5701-.4897-.22-.1201-.47-.2603-.5999-.5-.51-.9302-1.7202-3.6201-2.02-4.6401-.51-1.73-.5701-3.6396-.6401-5.6699-.0498-1.5-.0999-3.04-.3499-4.5298.3298.2598.6699.5396.9099.75.73.6099,1.1001.9097,1.3799,1.0298,1.2803.5601,2.8901.8501,4.6602.8501,2.1001,0,4.28-.4302,5.96-1.1699l.0901-.0303,4.8599-3.8101c.04,1.5601-.0701,3.4199-.1899,5.3501-.3301,5.5698-.71,11.8799,2.0701,15.2402.8999,1.0796,2.1099,1.6797,3.3999,1.6797,1.8501,0,3.4399-1.1997,4.1602-3.1396.8398-2.25-1.4902-3.4604-2.3701-3.9204ZM583.2512,355.7419c0,.1001-.0198.2002-.0398.29-.7102,3.6602-5.6599,4.96-9.7,4.96-5.7002,0-12.0701-2.3701-12.6501-6.77-.52-3.8901,3.3-5.1997,7.97-6.4102l.1101-.0298c.48-.1201,1.1399-.2002,1.8401-.2803,2.3098-.2598,5.8098-.6597,5.6099-3.7998-.02-.3999-.1099-.8301-.3301-1.23.3501.4702.71.96,1.0801,1.4502,2.6299,3.52,5.8201,7.79,6.1099,10.9199.0303.3198.0303.6201,0,.8999Z"/>
    <a xlink:href="100">
      <path id="tagline_PathItem_-2" data-name="tagline &amp;lt;PathItem&amp;gt;" d="M540.4514,356.1017c0,1.02-.6899,1.7202-.9102,1.9399-2.6499,2.6904-11.54,5.0703-11.9099,5.1704-.54.1396-1.1499.3101-1.8.48-3.8301,1.0498-9.0698,2.4897-12.47,2.4897-.46,0-.8799-.0298-1.25-.0801-2.3799-.3296-3.6399-1.7397-3.55-3.9497.03-.5903.1702-1.0801.3701-1.4902q0-.0098.01-.02c.0701-.1099.1299-.2197.1899-.3398.01,0,.01-.0103.01-.02.4102-.5898.9399-.9702,1.3501-1.2803.1899-.1396.47-.3496.5498-.46-.0298-2.3398-.0798-7.3896-.1799-13.9897l-.01-.6001c-.1399-9.3198-.1699-11.5298,1.6802-13.96,2.1699-2.8501,6.0999-4.54,10.5098-4.54,1.29,0,2.54.1401,3.7202.4302,3.7.8901,9.2798,3.8501,9.47,8.3198.0798,1.8301-.78,3.8701-2.3,5.4502-.4399.46-1.5701,1.5298-2.5901,1.5298-.1199,0-.23-.02-.3401-.0498-2.1399-.5801-1.6499-3.1201-1.3499-4.6401.0901-.4502.1699-.8901.1699-1.1401,0-.7397-.24-1.3296-.72-1.8198-.95-.9502-2.8198-1.4702-5.28-1.4702-3.3999,0-6.3398.9902-6.8098,1.5703l.9897,10.96c1.9902-.0103,3.8801-.1899,5.6201-.52l.1401-.02c.5-.1001,1.1199-.2202,1.7798-.2202.8701,0,1.6201.2202,2.2202.6504.7397.54,1.1199,1.1899,1.0898,1.8496-.0801,1.29-1.6699,1.9404-2.4399,2.25-2.05.8301-4.8,1.5103-8.1899,2.02.1799,1.3203.2798,2.6499.2798,3.9702,0,1.4199-.0898,2.8398-.2898,4.2397.97-.1597,1.9199-.3599,2.8499-.5996,1.6201-.4102,3.5901-1.0601,5.6702-1.75,3.6199-1.2002,7.3799-2.4502,10.0999-2.7104.1899-.0098.4001-.0195.55-.0195.1599,0,.28.0098.28.0098.6899.02,1.1899.04,1.6899.3501.6602.4097,1.0901,1.1997,1.1001,2.0098Z"/>
    </a>
    <path id="tagline_CompoundPathItem_-4" data-name="tagline &amp;lt;CompoundPathItem&amp;gt;" d="M705.7913,353.4919c-.5-.3101-1-.3301-1.7-.3599h-.27c-.1599,0-.3599,0-.55.02-2.73.2598-6.48,1.5-10.1099,2.71-2.0801.6899-4.04,1.3398-5.6602,1.75-.9299.2397-1.8799.4399-2.8599.6001.2-1.4004.3-2.8301.3-4.2402-.01-1.3301-.1001-2.6602-.28-3.9702,3.3799-.5195,6.1401-1.1997,8.1899-2.0298,1.1699-.4702,2.3701-1.1001,2.4302-2.2397.0398-.6602-.3401-1.3203-1.0801-1.8501-.6001-.4302-1.3501-.6499-2.23-.6499-.6602,0-1.28.1196-1.77.21l-.1401.0298c-1.74.3301-3.6299.5-5.6199.52l-.99-10.9697c.47-.5801,3.4099-1.5601,6.8101-1.5601,2.45,0,4.3298.52,5.27,1.4697.4897.4902.73,1.0801.73,1.8198,0,.25-.0901.6802-.1802,1.1401-.29,1.52-.7798,4.0601,1.3501,4.6401.1099.0298.23.04.3501.04,1.02,0,2.1499-1.0601,2.5898-1.52,1.52-1.5801,2.3701-3.6201,2.3-5.4502-.2-4.48-5.77-7.4297-9.47-8.3198-1.1802-.29-2.4399-.4302-3.73-.4302-4.4102,0-8.3301,1.6899-10.5,4.5303-1.8601,2.4297-1.8201,4.6499-1.6802,13.96v.6099c.0601,3.7803.1001,7.0601.1301,9.6099-.1899.1304-.4001.2803-.6101.4302-1.0898.7803-2.22,1.5898-2.74,1.8799-.9199.52-2.7,1.4302-3.7,1.8799-.22.1001-.45.2002-.6799.3101-1.23.5601-2.5,1.1401-3.73,1.2002-.1301-3.5601.3098-7.0298.8098-10.2603.3401-2.1396.79-4.4097,1.2402-6.5996.4897-2.46,1.0098-5,1.3599-7.4399.01-.0303.28-2.98-.1399-3.6504l-.04-.0698-.0601-.0601c-.4199-.4199-1.02-.6201-1.8298-.6201-.5103,0-1.0503.0801-1.4802.1504-.2.0298-.4099.0601-.5798.0796-.0901-.1396-.2202-.3296-.3301-.5-.6602-.96-1.6499-2.4297-2.5701-3.0298-2.6799-1.7397-5.27-2.6201-7.7-2.6201-5.05,0-9.03,3.8003-10.9299,10.4199-2.77,9.6401-3.4001,17.75-1.8901,24.1201.5701,2.3999,1.6301,6.8403,4.8801,6.8403.1899,0,.3799-.0103.5898-.04,1-.1704,1.71-.6001,2.1101-1.2803.74-1.25.1399-2.9502-.3401-4.3101-.1699-.4697-.3198-.8999-.3899-1.2197-.72-3.6001-.99-6.8301-.8301-9.8501,4.6501-1.0898,9.8301-2.3999,13.8901-5.79-.2102,1.5298-.6401,3.1001-1.05,4.6201-.47,1.71-.96,3.4697-1.1101,5.1699-.5198,5.5801.0701,9.1001,1.8601,11.0498,1.05,1.1602,2.51,1.7402,4.3398,1.7402,1.8901,0,4.1602-.6001,6.9602-1.8301.5598-.25,1.4199-.71,2.4199-1.2998.4099,1.3799,1.5901,2.2598,3.4001,2.5195.3699.0503.7898.0801,1.2397.0801,3.4001,0,8.6501-1.4399,12.48-2.4897.6501-.1802,1.25-.3403,1.79-.4902.3801-.1001,9.27-2.48,11.9202-5.1597.22-.23.9099-.9199.8999-1.9404,0-.8096-.4299-1.5996-1.0901-2.0098ZM658.6814,336.9621c-2.1101,2.8101-7.02,4.6099-10.3,5.1499.03-.1802.0701-.3501.1001-.5303.8398-4.6396,1.8999-10.4199,6.01-10.4199.95,0,2.0498.29,3.29.8604.0898.1797.2197.4399.48.6196.3098.2202.6099.3301.8499.4102.3801.1299.4001.1299.46.46.24,1.21-.05,2.3301-.8899,3.4502Z"/>
    <a xlink:href="100">
      <path id="tagline_PathItem_-3" data-name="tagline &amp;lt;PathItem&amp;gt;" d="M305.8015,358.0222v.0596c-.0103,0-.02-.0098-.04-.02.0098-.0098.0298-.02.04-.0396Z"/>
    </a>
    <path id="tagline_CompoundPathItem_-5" data-name="tagline &amp;lt;CompoundPathItem&amp;gt;" d="M410.2815,354.0016c-.5-.3198-1-.3398-1.7002-.3599,0,0-.1099-.0098-.27-.0098-.1599,0-.3599.0098-.5498.0298-2.73.2603-6.48,1.5-10.1101,2.7002-2.0801.6899-4.04,1.3398-5.6599,1.75-.9302.2397-1.8801.4399-2.8601.6001.2-1.4004.3-2.8203.3-4.2402-.01-1.3198-.1001-2.6499-.28-3.9702,3.3801-.5098,6.1399-1.1899,8.1899-2.0195.77-.3101,2.3601-.96,2.4299-2.25.04-.6602-.3398-1.3101-1.0798-1.8403-.6001-.4399-1.3501-.6597-2.23-.6597-.6501,0-1.27.1196-1.77.2197l-.1399.02c-1.7402.3301-3.6301.5103-5.6201.5298l-.99-10.9697c.47-.5801,3.4099-1.5698,6.8098-1.5698,2.4502,0,4.3301.52,5.2803,1.4697.48.4902.7197,1.0801.7197,1.8198,0,.2603-.0898.6904-.1799,1.1401-.2898,1.52-.78,4.0601,1.3501,4.6401.1101.0298.23.0498.3499.0498,1.02,0,2.1501-1.0698,2.5901-1.52,1.52-1.5898,2.3701-3.6196,2.3-5.4497-.2-4.48-5.77-7.4399-9.47-8.3301-1.1799-.29-2.4402-.4302-3.73-.4302-4.4099,0-8.3301,1.7002-10.5,4.54-1.8601,2.4302-1.8201,4.6401-1.6799,13.96v.6001c.0398,2.7603.0798,5.2402.1099,7.3701-.26.1099-.52.2197-.79.29-1.8501.5-5.76.9102-8.71.9102-1.04,0-1.9099-.0601-2.5-.1504-1.1001-.1899-1.8398-.6797-2.25-1.5298-.8599-1.7603-.1599-4.8198.98-6.9199.98-1.79,3.9199-5.27,5.8601-5.27.3499,0,.8699.0996,1.3599.9497l.3801.6704.6599-.4004c1.1199-.6699,1.6301-1.7197,1.3899-2.8701-.3599-1.7295-2.4299-3.5298-4.3599-3.7998-.21-.0298-.4299-.04-.6499-.04-4.6802,0-10.2402,6.4702-11.5801,9.8501-.3601.9302-.53,1.8701-.7,2.7798-.0901.46-.1702.9004-.27,1.3203l-.0901-.3003c-.73-2.3496-1.49-4.77-2.1699-7.1997-.1602-.5703-.3301-1.1401-.49-1.7202-.1501-.4897-.3-.9897-.4402-1.5-.3398-1.1899-.7397-2.3696-1.1399-3.52-.25-.73-.5-1.46-.74-2.1997-.3501-1.1001-.8301-2.23-1.9299-3.0103-.3901-.27-.8501-.4399-1.4001-.5-.3298-.0298-.6499-.0498-.9399-.0498-1.3101,0-2.23.3799-2.74,1.1396-.97,1.4502-.0601,3.6602.74,5.6104.23.5601.45,1.0898.5801,1.5.8501,2.7397,1.8699,5.52,2.8501,8.1997,1.0999,3,2.1399,5.8403,2.9697,8.6504l.04.1196c.3801,1.27.9502,3.1904.4102,3.9102-.1802.25-.5701.3799-1.1401.3799l-.1299-.0098c-2.9502-.0898-8.6899-3.3398-11.6001-10-.95-2.1602-1.3301-4.0503-1.6399-5.5703-.3901-1.9697-.6799-3.3896-2.0601-3.6699-.1199-.02-.25-.0298-.3801-.0298-1.46,0-2.9897,1.5601-4.8198,4.9097-1.9502,3.5601-1.79,7.1904-1.7002,9.1401l.0103.1499c.0098.1802.02.3604.04.54-.1401-.0098-.29-.02-.4502-.02,0,0-.1001-.0098-.25-.0098-.1599,0-.3699.0098-.5698.02-2.7202.2598-6.48,1.5098-10.1101,2.71-2.0801.6899-4.04,1.3398-5.6599,1.75-.9202.23-1.8801.4302-2.8501.6001.1899-1.4199.29-2.8403.29-4.2402,0-1.3198-.0901-2.6196-.28-3.9697,2.47-.3804,5.6799-1.0103,8.2-2.0303.76-.3101,2.3601-.9497,2.4199-2.2397.04-.6602-.3398-1.3203-1.0798-1.8403-.6001-.4399-1.3501-.6597-2.22-.6597-.6702,0-1.29.1201-1.8.2197l-.1201.02c-1.7898.3403-3.6299.5103-5.6199.52l-.98-10.96c.46-.5801,3.3999-1.5698,6.7998-1.5698,2.4602,0,4.3301.52,5.2803,1.4697.4897.4902.7197,1.0801.7197,1.8101,0,.2603-.0798.6899-.1699,1.1401-.2998,1.52-.79,4.0601,1.3501,4.6499.1099.0303.22.0498.3398.0498,1.02,0,2.1501-1.0698,2.5901-1.5298,1.52-1.5801,2.3801-3.6201,2.3-5.4497-.1899-4.4805-5.77-7.4302-9.47-8.3203-1.1799-.29-2.4299-.4297-3.72-.4297-4.4102,0-8.3401,1.6899-10.51,4.5396-.25.3203-.4402.6201-.5901.9204-2.29,4.3896-1.71,8.8198-1.1499,13.1099l.0698.6099c.51,3.96.75,7.9302.7402,12.1401v.8701c.0398.6299-.1501,1.1997-.5,1.5601v.0596c-.0103,0-.02-.0098-.04-.02-.2603-.0996-.55-.23-.8501-.3896-2.4399-1.3203-4.6499-4.0103-4.1099-6.2002.0398-.1802.1599-.3901.3098-.6299.27-.46.6001-1.0303.72-1.8403.1699-1.1396.6501-7.3896-1.1899-9.5195-.4399-.52-1.01-.8003-1.6401-.8003-.6099,0-1.2397.25-1.9199.75-2.8799,2.0801-3.3899,8.4102-3.25,11.8403-5.6399,3.5098-11.51,5.4795-17.47,5.8496-1.1299.0801-2.0598.1299-2.9199.1299-1.99,0-3.1101-.3198-3.74-1.0698-2.6101-3.1099,3.4299-12.8101,7.4099-18.0498,1.5601-2.0503,2.5601-3.25,3.1902-3.96-.1602.9399-.3201,2.2197-.1902,3.77.1201,1.52.4299,2.2197,1.0601,2.4399.1301.04.27.0601.4099.0601,1.3601,0,2.8901-2.27,3.49-3.8101.75-1.8901,1.3601-5.71-1.05-8.0503-.3599-.3599-1.6799-1.54-3.5898-1.6196l-.1699-.0103c-1.6501,0-4.4702,1.0103-9.8601,9.6899-2.45,3.9399-4.6199,8.1802-6.4399,12.5903l-.45.9697c-1.0901-3.5-3.3501-6.4697-5.55-9.3599-1.8101-2.3799-3.6799-4.8403-4.79-7.5103-2.53-6.0698-2.1301-10.1196,1.3201-13.52.1799-.1597,2-1.5601,2.1699-1.6699.52-.2598,1.47-.4199,2.4399-.4199,1.3201,0,2.46.3101,2.8301.77,1.2,1.5.8899,3.1099.53,4.9702-.1401.6997-.28,1.4297-.3301,2.1699l-.0701.9199.9202-.1201c1.6199-.1997,2.95-1.2798,3.76-3.0498,1.1699-2.5903,1.0298-6.2002-.3401-8.2202-.1101-.1602-1.73-1.8198-1.9399-1.9697-1.77-1.3403-3.7-2.02-5.73-2.02-6.8601,0-13.2302,8.0601-13.9299,14.73-.3301,3.1499,2.0798,10.0098,3.5,12.6997.5.9399,1.23,2.02,2.0698,3.1802-.6099-.6099-1.6499-1.0498-3.3899-1.0498-.53,0-1.02.04-1.3901.0698-5.53.48-12.52,2.5898-15.5398,7.0801-1.6602,2.4697-1.9902,5.3599-.9902,8.5898,2.02,6.5503,11.8301,10.0801,20.03,10.0801,3.52,0,6.6902-.6299,9.1599-1.8198,1.5-.71,2.7402-1.6401,3.6802-2.77.72-.8604,1.28-1.8701,1.6799-2.9902.1301.21.26.4302.3801.6499.2798.5.5798,1.0103.97,1.48,1.8699,2.25,5.03,3.3901,9.3799,3.3901,3.3901,0,6.8301-.7002,9.1201-1.2798,4.01-1.0303,8.3899-3.1899,12.4099-6.1304,1.4102,2.96,4.3999,6.6904,8.0901,6.77h.3599c.1001.0903.2.1802.3201.2603.6401.4697,1.24.6299,1.49.6699.7.1699,1.4099.27,2.1301.2798h.1399c.75,0,1.5-.0898,2.23-.27,3.1399-.4297,7.03-1.5,9.8699-2.2695.6702-.1802,1.2803-.3501,1.8301-.5.3601-.0903,8.3501-2.2402,11.4199-4.7202.5701,1.8101,1.5,4.04,3.3501,4.3398.1401.0303.26.04.3901.04.4099,0,.8298-.1001,1.2598-.2998,2.4602-1.1401,1.6602-4.8003.9602-8.0303v-.0298c.5901.8999,1.23,1.7598,1.9299,2.5801,1.6401,1.9399,3.6799,4.3599,7.0901,5.8701,1.3499.5996,4.0398,1.5996,6.8098,1.5996,2.1802,0,3.9402-.6201,5.25-1.8701,1.1702-1.0996,1.8901-2.6196,2.1501-4.5098,2.3799,2.1001,5.76,3.2002,9.8899,3.2002h.01c2.6799,0,5.72-.4702,8.6501-1.3501-.02.0298-.05.04-.0701.0601-.74.5498-1.8601,1.3701-1.9299,3.1499-.1001,2.21,1.1699,3.6201,3.5498,3.9497.3701.0601.79.0801,1.2402.0801,3.3999,0,8.6499-1.4399,12.4697-2.48.6602-.1797,1.2603-.3501,1.8003-.4897.3799-.1001,9.2698-2.48,11.9199-5.1699.22-.2202.9099-.9199.8999-1.9302,0-.8101-.4299-1.6001-1.0898-2.0103ZM257.9514,355.9318c-.7002,3.6602-5.6602,4.96-9.7002,4.96-5.6997,0-12.0698-2.3696-12.6499-6.7598-.52-3.8901,3.3101-5.21,7.98-6.4199l.1101-.0303c.47-.1201,1.1299-.1997,1.8298-.2798,2.3101-.2603,5.8101-.6602,5.6201-3.79-.03-.3999-.1099-.8203-.3201-1.21.3401.46.7.9399,1.0601,1.4199,2.98,3.9897,6.6799,8.9502,6.0701,12.1099ZM305.8015,358.9719v-.0801c.0298.0103.0598.02.0898.0303-.03.0098-.0601.0298-.0898.0498ZM306.5613,358.3317s-.0098-.0098-.02-.0098c.0103,0,.0103-.0103.02-.02v.0298Z"/>
    <path id="tagline_CompoundPathItem_-6" data-name="tagline &amp;lt;CompoundPathItem&amp;gt;" d="M305.8015,358.8918v.0801c.0298-.02.0598-.04.0898-.0498-.03-.0103-.0601-.02-.0898-.0303Z"/>
    <a xlink:href="lse">
      <path id="tagline_PathItem_-4" data-name="tagline &amp;lt;PathItem&amp;gt;" d="M305.8914,358.9221c-.03.0098-.0601.0298-.0898.0498v-.0801c.0298.0103.0598.02.0898.0303Z" style="fill: none;"/>
    </a>
    <a xlink:href="lse">
      <path id="tagline_PathItem_-5" data-name="tagline &amp;lt;PathItem&amp;gt;" d="M306.3015,355.592v.8701c.0398.6299-.1501,1.1997-.5,1.5601v-2.4302h.5Z" style="fill: none;"/>
    </a>
    <a xlink:href="lse">
      <path id="tagline_PathItem_-6" data-name="tagline &amp;lt;PathItem&amp;gt;" d="M306.5613,358.3019v.0298s-.0098-.0098-.02-.0098c.0103,0,.0103-.0103.02-.02Z" style="fill: none;"/>
    </a>
    <a xlink:href="100">
      <path id="tagline_PathItem_-7" data-name="tagline &amp;lt;PathItem&amp;gt;" d="M604.8914,334.8117c-.1401.2202-.4399.4702-1.04.4702-1.2998,0-4.0898-1.2402-6.1499-3.1001-1.1401-1.0298-3.53-3.1899-2.8999-5.52.2898-1.0498,1.1099-1.8896,2.4399-2.4897.6899-.3101,1.48-.4702,2.2598-.4702,1.4802,0,2.6902.5801,3.2302,1.54.49.8799.48,2.0498-.04,2.8398-.4099.6401-1,.8403-1.3899.98-.02,0-.04.0103-.0701.02.3.4199,1.0701,1.2803,1.76,2.0503,1.8398,2.0601,2.3999,2.9297,1.8999,3.6797Z"/>
    </a>
    <a xlink:href="100">
      <path id="tagline_PathItem_-8" data-name="tagline &amp;lt;PathItem&amp;gt;" d="M462.3069,361.6122c-.72,1.9399-2.3101,3.1396-4.1599,3.1396-.3101,0-.6001-.04-.8801-.1099-1.28-.3101-2.1799-1.23-2.52-1.5801-1.8799-1.98-1.53-4.1001-2.1099-11.6001-.4001-5.1196-.6401-5.0898-.7-8.25-.03-1.6396-.0901-3.7598.1699-7.9297.1201-1.9302.23-3.79.1899-5.3501l-.79.6201c-1.3835,1.5171-2.7629,2.4482-3.71,2.9932-2.3899,1.3755-4.561,1.7549-5.9358,1.9819-1.6416.2715-3.0295.2954-3.9941.2646,0,0-1.7715-.0254-3.1399-.3496-.5503-.1304-1.0503-.3003-1.52-.5-.2803-.1201-.6501-.4204-1.3801-1.0303-.24-.21-.5801-.4897-.9099-.75.1399.8301.22,1.6802.2598,2.5303.0503.96.0901,1.6797.0901,2,.0601,2.4399.1301,6.5498.1799,8.71.0601,2.3398.1802,5.21.7002,8.0498.1099.54.1499.8501.3301,1.46.2998,1.0103,1.5098,3.71,2.0198,4.6299.1301.25.3801.3901.6001.5103.4199.2197.53.4399.5701.48.4199.3501.9399,1.2598.8999,2.2998-.03,1.0801-.6599,1.8403-1.0701,2.23-.1899.1704-.3398.27-.3799.3003-.03.02-.0601.0498-.0901.0801l-.1001.04c-.75.3496-1.4697.5195-2.1399.5195-2.71,0-4.0798-2.8198-5-4.6997-1.8999-3.9102-2.03-7.5903-2.22-13.1699-.0601-1.7002-.1299-3.6304-.25-5.8203l-.0701-1.1597c-.03-.6001-.0701-1.1699-.0898-1.71-.01-.0503-.01-.0903-.01-.1401-.02-.4702-.04-.9502-.0701-1.4502-.02-.7197-.05-1.48-.0801-2.27-.0598-1.6997-.1299-3.6299-.25-5.8198l-.0701-1.1602c-.2998-5.1299-.48-8.23,1.3801-9.0498.27-.1201.5601-.1802.8501-.1802.5,0,1.01.1602,1.5598.5h.0103c1.5298.9502,2.2898,2.46,3.0198,3.9399.9402,1.8901,1.8301,3.6802,4.28,4.5703,0,0,.7446.2422,1.6201.2598,7.4683.1494,10.6899-4.3301,10.6899-4.3301.6694-.9307.9502-.6689,2.1001-4.8799.5298-1.9399,1.0898-3.9497,2.46-5.21.02-.0103.0298-.0298.0498-.04.75-.6699,1.6101-1.02,2.5-1.02,1.8,0,3.3801,1.4302,3.8501,3.48.8,3.4902.6401,7.6201.3201,11.7603-.05.77-.1201,1.54-.1799,2.3096-.21,2.6904-.4202,5.9404-.3701,9.54.0601,4.4702.51,6.9502.52,10.5503,0,.27-.01,1,.05,2,.0398.6299.26,3.02.3799,3.7998.05.0303.1101.0601.1702.0903.8799.4497,3.21,1.6597,2.3699,3.9199Z"/>
    </a>
  </g>
</svg>